<?xml version="1.0" encoding="utf-8"?>
<svg version="1.1" baseProfile="basic" id="Layer_1"
	 xmlns="http://www.w3.org/2000/svg" xmlns:xlink="http://www.w3.org/1999/xlink" x="0px" y="0px" viewBox="0 0 1920 1080"
	 xml:space="preserve"
	 style="background-color:black;">
<rect x="99" y="602" fill="#46C089" width="303" height="393"/>
<text transform="matrix(1 0 0 1 98.6201 916.7793)" fill="#FFFFFF" font-family="Noto Serif CJK JP ExtraLight" font-size="303.3799px">開</text>
<text transform="matrix(1 0 0 1 304.1646 637.8564)" fill="#FFFFFF" font-family="Noto Serif CJK JP Regular" font-size="30px">１２画</text>
<text transform="matrix(1 0 0 1 342.0366 982.165)" fill="#FFFFFF" font-family="Noto Serif CJK JP Regular" font-size="30px">N３</text>
<text transform="matrix(1 0 0 1 108.1768 637.6689)" fill="#FFFFFF" font-family="Courier New" font-size="30px">958b</text>
<rect x="426.22" y="849.92" fill="none" width="936.78" height="124.08"/>
<text transform="matrix(1 0 0 1 426.2153 898.3433)"><tspan x="0" y="0" fill="#FFFFFF" font-family="Noto Serif CJK JP Regular" font-size="60px">ドアを開けて入ってきたのは、ま</tspan><tspan x="0" y="72" fill="#FFFFFF" font-family="Noto Serif CJK JP Regular" font-size="60px">ったく見知らぬ人だった。</tspan></text>
<rect x="489" y="614.86" fill="none" width="533" height="86.14"/>
<text transform="matrix(1 0 0 1 489 647.1392)"><tspan x="0" y="0" fill="#FB4D3D" font-family="Noto Serif CJK JP Regular" font-size="40px">ひら.く、ひら.き、-びら.き、</tspan><tspan x="0" y="48" fill="#FB4D3D" font-family="Noto Serif CJK JP Regular" font-size="40px">ひら.ける、あ.く、あ.ける</tspan></text>
<rect x="495" y="735.9" fill="none" width="500" height="86.14"/>
<text transform="matrix(1 0 0 1 495 768.1814)" fill="#00A6A6" font-family="Noto Serif CJK JP Regular" font-size="40px">カイ</text>
<text transform="matrix(1 0 0 1 425.8396 679.8969)" fill="#FB4D3D" font-family="Noto Serif CJK JP Regular" font-size="60px">音</text>
<text transform="matrix(1 0 0 1 425.6396 801.0607)" fill="#00A6A6" font-family="Noto Serif CJK JP Regular" font-size="60px">訓</text>
<rect x="101" y="515" fill="none" width="1720.54" height="58"/>
<text transform="matrix(1 0 0 1 101 562.7593)" fill="#FFFFFF" font-family="Noto Serif CJK JP Regular" font-size="60px">Open, unfold, unseal</text>
<text transform="matrix(1 0 0 1 108.4677 981.6952)" fill="#FFFFFF" font-family="Noto Serif CJK JP Regular" font-size="30px">G.３</text>
</svg>
